<?xml version="1.0" ?><!DOCTYPE svg  PUBLIC '-//W3C//DTD SVG 1.1//EN'  'http://www.w3.org/Graphics/SVG/1.1/DTD/svg11.dtd'><svg height="1.04167in" style="shape-rendering:geometricPrecision; text-rendering:geometricPrecision; image-rendering:optimizeQuality; fill-rule:evenodd; clip-rule:evenodd" version="1.1" viewBox="0 0 5067 5067" width="1.04167in" xml:space="preserve" xmlns="http://www.w3.org/2000/svg" xmlns:xlink="http://www.w3.org/1999/xlink"><defs><style type="text/css">
   <![CDATA[
    .fil1 {fill:#FEFEFE}
    .fil0 {fill:#673276}
   ]]>
  </style></defs><g id="Layer_x0020_1"><g id="_521262136"><rect class="fil0" height="5067" rx="489" ry="489" width="5067"/><g><path class="fil1" d="M4120 1689l-14 -15 -212 2c-327,6 -659,9 -987,15l-204 1 -15 15 0 195 15 14 124 6 375 15 18 1 -21 20c-219,184 -434,368 -653,554l-32 -3c-186,-230 -376,-461 -561,-695l-131 -162 7 0 215 -19 229 -17 15 -15 22 -196 -15 -19c-561,0 -1122,0 -1679,0l-15 19 0 189 22 22 470 33 29 14 408 501c182,220 364,439 547,658l7 25 0 215 0 364 -11 15 -237 20 -284 22 -18 16 3 164 15 18c554,0 1100,0 1650,0l11 0 7 -10 0 -175 -7 -13 -76 -2 -445 -18 -18 -19c7,-207 11,-413 14,-622l11 -17 219 -194c234,-208 470,-418 703,-627l22 -11 102 -7 361 -28 14 -16 0 -233z"/><polygon class="fil1" points="4466,2199 4455,2237 4353,2674 4233,3162 4226,3168 4055,3149 4044,3148 4037,3143 4037,3082 4040,3026 4044,2858 4047,2674 4051,2492 4055,2310 4058,2181 4062,2173 4168,2181 4237,2184 4364,2191 4444,2193 4466,2195 "/><polygon class="fil1" points="4135,3497 4026,3497 4018,3492 4007,3388 4000,3286 4004,3284 4058,3288 4139,3294 4230,3301 4248,3303 4255,3308 4255,3492 4248,3497 "/></g></g></g></svg>